2014025_C4_04_grf
version=1
nRows=37
nColumns=19
inDegrees=no
endheader
time	ground_force_1_vx	ground_force_1_vy	ground_force_1_vz	ground_force_1_px	ground_force_1_py	ground_force_1_pz	ground_force_1_mx	ground_force_1_my	ground_force_1_mz	ground_force_2_vx	ground_force_2_vy	ground_force_2_vz	ground_force_2_px	ground_force_2_py	ground_force_2_pz	ground_force_2_mx	ground_force_2_my	ground_force_2_mz
      0.76000000	      0.00000000	      0.00000000	      0.00000000	      0.00000000	      0.00000000	      0.00000000	      0.00000000	      0.00000000	      0.00000000	    -37.82282025	    616.43980443	     42.77471639	      0.82605985	     -0.00200000	     -0.35176404	      0.00000000	     -1.58916944	      0.00000000
      0.76100000	      0.00000000	      0.00000000	      0.00000000	      0.00000000	      0.00000000	      0.00000000	      0.00000000	      0.00000000	      0.00000000	    -37.23995388	    612.18110844	     42.50595346	      0.82662198	     -0.00200000	     -0.35185310	      0.00000000	     -1.58341856	      0.00000000
      0.76200000	      0.00000000	      0.00000000	      0.00000000	      0.00000000	      0.00000000	      0.00000000	      0.00000000	      0.00000000	      0.00000000	    -36.66520119	    607.98130929	     42.24227034	      0.82718570	     -0.00200000	     -0.35194255	      0.00000000	     -1.57768506	      0.00000000
      0.76300000	      0.00000000	      0.00000000	      0.00000000	      0.00000000	      0.00000000	      0.00000000	      0.00000000	      0.00000000	      0.00000000	    -36.10025346	    603.85640711	     41.98492002	      0.82775111	     -0.00200000	     -0.35203239	      0.00000000	     -1.57199270	      0.00000000
      0.76400000	      0.00000000	      0.00000000	      0.00000000	      0.00000000	      0.00000000	      0.00000000	      0.00000000	      0.00000000	      0.00000000	    -35.54287925	    599.79233891	     41.73261821	      0.82831764	     -0.00200000	     -0.35212251	      0.00000000	     -1.56635014	      0.00000000
      0.76500000	      0.00000000	      0.00000000	      0.00000000	      0.00000000	      0.00000000	      0.00000000	      0.00000000	      0.00000000	      0.00000000	    -34.99463014	    595.80547735	     41.48660749	      0.82888524	     -0.00200000	     -0.35221287	      0.00000000	     -1.56079085	     -0.00000000
      0.76600000	      0.00000000	      0.00000000	      0.00000000	      0.00000000	      0.00000000	      0.00000000	      0.00000000	      0.00000000	      0.00000000	    -34.45339948	    591.88120067	     41.24560617	      0.82945346	     -0.00200000	     -0.35230338	      0.00000000	     -1.55531548	      0.00000000
      0.76700000	      0.00000000	      0.00000000	      0.00000000	      0.00000000	      0.00000000	      0.00000000	      0.00000000	      0.00000000	      0.00000000	    -33.92059915	    588.03608641	     41.01083986	      0.83002214	     -0.00200000	     -0.35239400	      0.00000000	     -1.54996501	      0.00000000
      0.76800000	      0.00000000	      0.00000000	      0.00000000	      0.00000000	      0.00000000	      0.00000000	      0.00000000	      0.00000000	      0.00000000	    -33.39426592	    584.25504714	     40.78103080	      0.83059092	     -0.00200000	     -0.35248462	      0.00000000	     -1.54472918	      0.00000000
      0.76900000	      0.00000000	      0.00000000	      0.00000000	      0.00000000	      0.00000000	      0.00000000	      0.00000000	      0.00000000	      0.00000000	    -32.87565522	    580.55484667	     40.55738766	      0.83115955	     -0.00200000	     -0.35257518	      0.00000000	     -1.53965191	      0.00000000
      0.77000000	      0.00000000	      0.00000000	      0.00000000	      0.00000000	      0.00000000	      0.00000000	      0.00000000	      0.00000000	      0.00000000	    -32.36293048	    576.91991329	     40.33864699	      0.83172781	     -0.00200000	     -0.35266564	      0.00000000	     -1.53471308	      0.00000000
      0.77100000	      0.00000000	      0.00000000	      0.00000000	      0.00000000	      0.00000000	      0.00000000	      0.00000000	      0.00000000	      0.00000000	    -31.85720183	    573.36723432	     40.12598358	      0.83229530	     -0.00200000	     -0.35275588	      0.00000000	     -1.52995946	      0.00000000
      0.77200000	      0.00000000	      0.00000000	      0.00000000	      0.00000000	      0.00000000	      0.00000000	      0.00000000	      0.00000000	      0.00000000	    -31.35676309	    569.88082826	     39.91812356	      0.83286196	     -0.00200000	     -0.35284591	      0.00000000	     -1.52536334	      0.00000000
      0.77300000	      0.00000000	      0.00000000	      0.00000000	      0.00000000	      0.00000000	      0.00000000	      0.00000000	      0.00000000	      0.00000000	    -30.86256981	    566.47773832	     39.71617650	      0.83342730	     -0.00200000	     -0.35293560	      0.00000000	     -1.52097898	      0.00000000
      0.77400000	      0.00000000	      0.00000000	      0.00000000	      0.00000000	      0.00000000	      0.00000000	      0.00000000	      0.00000000	      0.00000000	    -30.37306480	    563.14166635	     39.51888680	      0.83399135	     -0.00200000	     -0.35302497	      0.00000000	     -1.51677412	      0.00000000
      0.77500000	      0.00000000	      0.00000000	      0.00000000	      0.00000000	      0.00000000	      0.00000000	      0.00000000	      0.00000000	      0.00000000	    -29.88903131	    559.88961831	     39.32732232	      0.83455353	     -0.00200000	     -0.35311390	      0.00000000	     -1.51280604	      0.00000000
      0.77600000	      0.00000000	      0.00000000	      0.00000000	      0.00000000	      0.00000000	      0.00000000	      0.00000000	      0.00000000	      0.00000000	    -29.40905094	    556.70499802	     39.14025091	      0.83511398	     -0.00200000	     -0.35320242	      0.00000000	     -1.50903396	      0.00000000
      0.77700000	      0.00000000	      0.00000000	      0.00000000	      0.00000000	      0.00000000	      0.00000000	      0.00000000	      0.00000000	      0.00000000	    -28.93372346	    553.60481143	     38.95868305	      0.83567196	     -0.00200000	     -0.35329035	      0.00000000	     -1.50551485	      0.00000000
      0.77800000	      0.00000000	      0.00000000	      0.00000000	      0.00000000	      0.00000000	      0.00000000	      0.00000000	      0.00000000	      0.00000000	    -28.46178599	    550.57216436	     38.78142573	      0.83622777	     -0.00200000	     -0.35337780	      0.00000000	     -1.50220439	      0.00000000
      0.77900000	      0.00000000	      0.00000000	      0.00000000	      0.00000000	      0.00000000	      0.00000000	      0.00000000	      0.00000000	      0.00000000	    -27.99366042	    547.62402549	     38.60943466	      0.83678057	     -0.00200000	     -0.35346456	      0.00000000	     -1.49916311	      0.00000000
      0.78000000	      0.00000000	      0.00000000	      0.00000000	      0.00000000	      0.00000000	      0.00000000	      0.00000000	      0.00000000	      0.00000000	    -27.52823569	    544.74342614	     38.44156116	      0.83733077	     -0.00200000	     -0.35355072	      0.00000000	     -1.49634347	      0.00000000
      0.78100000	      0.00000000	      0.00000000	      0.00000000	      0.00000000	      0.00000000	      0.00000000	      0.00000000	      0.00000000	      0.00000000	    -27.06574555	    541.94713011	     38.27872574	      0.83787747	     -0.00200000	     -0.35363612	      0.00000000	     -1.49381036	      0.00000000
      0.78200000	      0.00000000	      0.00000000	      0.00000000	      0.00000000	      0.00000000	      0.00000000	      0.00000000	      0.00000000	      0.00000000	    -26.60524286	    539.21815008	     38.11982796	      0.83842117	     -0.00200000	     -0.35372085	      0.00000000	     -1.49151220	      0.00000000
      0.78300000	      0.00000000	      0.00000000	      0.00000000	      0.00000000	      0.00000000	      0.00000000	      0.00000000	      0.00000000	      0.00000000	    -26.14677045	    536.57295182	     37.96574268	      0.83896094	     -0.00200000	     -0.35380476	      0.00000000	     -1.48951437	      0.00000000
      0.78400000	      0.00000000	      0.00000000	      0.00000000	      0.00000000	      0.00000000	      0.00000000	      0.00000000	      0.00000000	      0.00000000	    -25.68956465	    533.99451077	     37.81541511	      0.83949738	     -0.00200000	     -0.35388799	      0.00000000	     -1.48776267	      0.00000000
      0.78500000	      0.00000000	      0.00000000	      0.00000000	      0.00000000	      0.00000000	      0.00000000	      0.00000000	      0.00000000	      0.00000000	    -25.23349505	    531.49901330	     37.66967710	      0.84002947	     -0.00200000	     -0.35397038	      0.00000000	     -1.48632347	      0.00000000
      0.78600000	      0.00000000	      0.00000000	      0.00000000	      0.00000000	      0.00000000	      0.00000000	      0.00000000	      0.00000000	      0.00000000	    -24.77798052	    529.06952798	     37.52751946	      0.84055792	     -0.00200000	     -0.35405209	      0.00000000	     -1.48513936	      0.00000000
      0.78700000	      0.00000000	      0.00000000	      0.00000000	      0.00000000	      0.00000000	      0.00000000	      0.00000000	      0.00000000	      0.00000000	    -24.32272770	    526.72205493	     37.38973495	      0.84108165	     -0.00200000	     -0.35413294	      0.00000000	     -1.48427770	      0.00000000
      0.78800000	      0.00000000	      0.00000000	      0.00000000	      0.00000000	      0.00000000	      0.00000000	      0.00000000	      0.00000000	      0.00000000	    -23.86734635	    524.43981171	     37.25536130	      0.84160145	     -0.00200000	     -0.35421312	      0.00000000	     -1.48367754	      0.00000000
      0.78900000	      0.00000000	      0.00000000	      0.00000000	      0.00000000	      0.00000000	      0.00000000	      0.00000000	      0.00000000	      0.00000000	    -23.41140062	    522.23861217	     37.12513652	      0.84211617	     -0.00200000	     -0.35429245	      0.00000000	     -1.48340563	      0.00000000
      0.79000000	      0.00000000	      0.00000000	      0.00000000	      0.00000000	      0.00000000	      0.00000000	      0.00000000	      0.00000000	      0.00000000	    -22.95468748	    520.10193467	     36.99814007	      0.84262668	     -0.00200000	     -0.35437111	      0.00000000	     -1.48339729	      0.00000000
      0.79100000	      0.00000000	      0.00000000	      0.00000000	      0.00000000	      0.00000000	      0.00000000	      0.00000000	      0.00000000	      0.00000000	    -22.49664068	    518.04551855	     36.87506169	      0.84313180	     -0.00200000	     -0.35444891	      0.00000000	     -1.48371935	      0.00000000
      0.79200000	      0.00000000	      0.00000000	      0.00000000	      0.00000000	      0.00000000	      0.00000000	      0.00000000	      0.00000000	      0.00000000	    -22.03722857	    516.05291665	     36.75503433	      0.84363250	     -0.00200000	     -0.35452604	      0.00000000	     -1.48430560	      0.00000000
      0.79300000	      0.00000000	      0.00000000	      0.00000000	      0.00000000	      0.00000000	      0.00000000	      0.00000000	      0.00000000	      0.00000000	    -21.57574985	    514.13971931	     36.63872294	      0.84412755	     -0.00200000	     -0.35460230	      0.00000000	     -1.48522031	      0.00000000
      0.79400000	      0.00000000	      0.00000000	      0.00000000	      0.00000000	      0.00000000	      0.00000000	      0.00000000	      0.00000000	      0.00000000	    -21.11233585	    512.28966564	     36.52532436	      0.84461798	     -0.00200000	     -0.35467789	      0.00000000	     -1.48639390	      0.00000000
      0.79500000	      0.00000000	      0.00000000	      0.00000000	      0.00000000	      0.00000000	      0.00000000	      0.00000000	      0.00000000	      0.00000000	    -20.64617537	    510.51812246	     36.41550485	      0.84510254	     -0.00200000	     -0.35475259	      0.00000000	     -1.48788562	      0.00000000
      0.79600000	      0.00000000	      0.00000000	      0.00000000	      0.00000000	      0.00000000	      0.00000000	      0.00000000	      0.00000000	      0.00000000	    -20.17757297	    508.80901515	     36.30850948	      0.84558234	     -0.00200000	     -0.35482658	      0.00000000	     -1.48962592	      0.00000000
